<?xml version="1.0" encoding="UTF-8"?>
<!DOCTYPE svg PUBLIC "-//W3C//DTD SVG 1.1//EN" "http://www.w3.org/Graphics/SVG/1.1/DTD/svg11.dtd">
<svg xmlns="http://www.w3.org/2000/svg" version="1.1" width="1584px" height="672px" style="shape-rendering:geometricPrecision; text-rendering:geometricPrecision; image-rendering:optimizeQuality; fill-rule:evenodd; clip-rule:evenodd" xmlns:xlink="http://www.w3.org/1999/xlink">
<g><path style="opacity:1" fill="#fefefe" d="M -0.5,-0.5 C 527.5,-0.5 1055.5,-0.5 1583.5,-0.5C 1583.5,223.5 1583.5,447.5 1583.5,671.5C 1055.5,671.5 527.5,671.5 -0.5,671.5C -0.5,447.5 -0.5,223.5 -0.5,-0.5 Z"/></g>
<g><path style="opacity:1" fill="#adaaad" d="M 366.5,155.5 C 370.162,155.723 373.495,156.723 376.5,158.5C 372.838,158.277 369.505,157.277 366.5,155.5 Z"/></g>
<g><path style="opacity:1" fill="#1f1d1d" d="M 366.5,155.5 C 369.505,157.277 372.838,158.277 376.5,158.5C 443.468,187.089 469.968,237.422 456,309.5C 448.045,332.415 436.712,353.415 422,372.5C 417.686,379.46 414.186,386.793 411.5,394.5C 410.076,396.515 409.41,398.848 409.5,401.5C 408.592,413.742 403.926,424.242 395.5,433C 399.084,437.256 399.417,441.756 396.5,446.5C 394.481,447.538 394.147,448.872 395.5,450.5C 396.872,451.888 397.872,453.555 398.5,455.5C 397.793,458.364 396.459,460.864 394.5,463C 399.287,468.812 399.62,474.812 395.5,481C 399.585,485.264 400.419,490.097 398,495.5C 390.747,500.21 383.58,505.043 376.5,510C 373.5,513.667 370.5,517.333 367.5,521C 352.731,528.695 337.731,529.362 322.5,523C 319.367,517.863 315.034,514.196 309.5,512C 304.541,506.035 298.708,501.202 292,497.5C 288.564,491.475 288.731,485.641 292.5,480C 291.031,477.523 290.031,474.857 289.5,472C 289.71,468.943 291.043,466.443 293.5,464.5C 291.494,461.987 290.16,459.154 289.5,456C 289.522,453.817 290.522,452.317 292.5,451.5C 298.62,453.317 304.953,453.984 311.5,453.5C 321.499,453.053 331.499,452.553 341.5,452C 354.746,449.685 368.079,448.018 381.5,447C 383.5,446.333 385.5,445.667 387.5,445C 388.252,444.329 388.586,443.496 388.5,442.5C 391.179,442.475 392.512,441.142 392.5,438.5C 372.797,440.228 353.13,442.394 333.5,445C 322.186,445.973 310.852,446.473 299.5,446.5C 298.566,447.568 298.232,448.901 298.5,450.5C 296.708,450.634 295.042,450.301 293.5,449.5C 288.913,444.81 288.247,439.477 291.5,433.5C 283.953,426.075 279.286,417.075 277.5,406.5C 277.59,403.848 276.924,401.515 275.5,399.5C 273.315,392.129 269.815,385.463 265,379.5C 253.952,366.12 243.285,352.453 233,338.5C 213.151,302.215 210.151,264.548 224,225.5C 252.985,164.925 300.485,141.592 366.5,155.5 Z"/></g>
<g><path style="opacity:1" fill="#f7f2e7" d="M 347.5,161.5 C 370.264,163.163 390.264,171.163 407.5,185.5C 405.712,185.785 404.045,185.452 402.5,184.5C 398.008,180.819 393.175,177.819 388,175.5C 386.413,176.727 385.079,176.394 384,174.5C 382.192,174.888 380.525,174.888 379,174.5C 376.418,171.396 373.251,170.563 369.5,172C 368.5,169.667 366.833,168 364.5,167C 360.833,166.667 357.167,166.333 353.5,166C 352.584,165.626 351.75,165.126 351,164.5C 348.107,164.317 345.107,164.651 342,165.5C 333.375,162.576 324.875,162.909 316.5,166.5C 323.326,167.973 330.159,168.307 337,167.5C 338.225,167.862 339.391,168.362 340.5,169C 340.167,169.333 339.833,169.667 339.5,170C 327.995,170.501 316.662,172.168 305.5,175C 300.908,178.828 295.575,181.161 289.5,182C 286.365,185.401 282.698,188.067 278.5,190C 275.081,193.35 271.748,196.684 268.5,200C 267.207,200.49 265.873,200.657 264.5,200.5C 264.649,201.552 264.483,202.552 264,203.5C 260.814,206.744 257.481,209.744 254,212.5C 253.691,213.766 253.191,214.933 252.5,216C 252.833,216.333 253.167,216.667 253.5,217C 251.333,218.5 249.167,220 247,221.5C 246.868,224.614 245.701,227.614 243.5,230.5C 240.772,231.94 238.605,231.274 237,228.5C 236.581,229.672 235.915,230.672 235,231.5C 234.333,230.167 233.667,230.167 233,231.5C 232.205,233.901 231.038,236.068 229.5,238C 230.197,240.159 229.863,242.326 228.5,244.5C 229.718,245.803 229.385,246.803 227.5,247.5C 228.668,248.906 228.335,250.072 226.5,251C 226.833,251.333 227.167,251.667 227.5,252C 226.584,252.374 225.75,252.874 225,253.5C 223.45,264.783 223.117,276.117 224,287.5C 224.921,292.203 226.421,296.703 228.5,301C 227.919,301.893 227.585,302.893 227.5,304C 229.089,308.701 230.089,313.534 230.5,318.5C 225.677,308.892 222.844,298.558 222,287.5C 220.966,275.056 221.466,262.723 223.5,250.5C 224.924,248.485 225.59,246.152 225.5,243.5C 236.625,209.198 258.625,184.365 291.5,169C 299.551,165.705 307.884,163.538 316.5,162.5C 326.815,161.733 337.148,161.399 347.5,161.5 Z"/></g>
<g><path style="opacity:1" fill="#fbf4e3" d="M 407.5,185.5 C 424.005,197.677 436.005,213.344 443.5,232.5C 443.768,235.119 443.435,237.619 442.5,240C 443.667,240.5 444.5,241.333 445,242.5C 445.511,244.878 446.178,247.212 447,249.5C 447.276,260.292 448.11,270.792 449.5,281C 448.086,295.089 445.419,308.589 441.5,321.5C 441.608,322.442 441.941,323.275 442.5,324C 439.905,328.411 437.572,332.911 435.5,337.5C 435.863,338.183 436.196,338.85 436.5,339.5C 428.011,353.139 419.511,366.805 411,380.5C 407.667,387.167 404.333,393.833 401,400.5C 399.117,407.143 397.45,413.809 396,420.5C 394.2,422.317 392.034,423.484 389.5,424C 383.175,424.5 376.842,424.666 370.5,424.5C 367.833,424.5 365.167,424.5 362.5,424.5C 362.829,411.656 362.495,398.989 361.5,386.5C 358.67,384.638 357.837,381.971 359,378.5C 364.391,363.399 370.558,348.732 377.5,334.5C 377.254,336.78 377.254,338.78 377.5,340.5C 389.166,331.833 399.499,321.833 408.5,310.5C 410.129,309.375 411.629,308.041 413,306.5C 425.22,277.176 422.553,249.176 405,222.5C 381.677,196.226 352.177,187.059 316.5,195C 307.901,197.637 299.901,201.304 292.5,206C 292.833,206.333 293.167,206.667 293.5,207C 289.289,210.721 285.289,214.721 281.5,219C 277.333,219.833 274.833,222.333 274,226.5C 272.488,227.257 271.154,228.257 270,229.5C 266.197,237.46 263.197,245.794 261,254.5C 254.601,287.644 264.435,314.811 290.5,336C 296.96,338.483 303.293,341.15 309.5,344C 310.667,344.5 311.5,345.333 312,346.5C 312.49,345.207 312.657,343.873 312.5,342.5C 318.472,355.631 323.805,369.131 328.5,383C 327.685,384.643 326.685,386.143 325.5,387.5C 325.5,401.167 325.5,414.833 325.5,428.5C 324.5,428.5 323.5,428.5 322.5,428.5C 314.16,428.666 305.827,428.5 297.5,428C 295.667,426.833 293.833,425.667 292,424.5C 291.904,406.202 285.904,390.202 274,376.5C 261.88,364.72 250.88,352.053 241,338.5C 236.71,332.253 233.21,325.586 230.5,318.5C 230.089,313.534 229.089,308.701 227.5,304C 227.585,302.893 227.919,301.893 228.5,301C 226.421,296.703 224.921,292.203 224,287.5C 223.117,276.117 223.45,264.783 225,253.5C 225.75,252.874 226.584,252.374 227.5,252C 227.167,251.667 226.833,251.333 226.5,251C 228.335,250.072 228.668,248.906 227.5,247.5C 229.385,246.803 229.718,245.803 228.5,244.5C 229.863,242.326 230.197,240.159 229.5,238C 231.038,236.068 232.205,233.901 233,231.5C 233.667,230.167 234.333,230.167 235,231.5C 235.915,230.672 236.581,229.672 237,228.5C 238.605,231.274 240.772,231.94 243.5,230.5C 245.701,227.614 246.868,224.614 247,221.5C 249.167,220 251.333,218.5 253.5,217C 253.167,216.667 252.833,216.333 252.5,216C 253.191,214.933 253.691,213.766 254,212.5C 257.481,209.744 260.814,206.744 264,203.5C 264.483,202.552 264.649,201.552 264.5,200.5C 265.873,200.657 267.207,200.49 268.5,200C 271.748,196.684 275.081,193.35 278.5,190C 282.698,188.067 286.365,185.401 289.5,182C 295.575,181.161 300.908,178.828 305.5,175C 316.662,172.168 327.995,170.501 339.5,170C 339.833,169.667 340.167,169.333 340.5,169C 339.391,168.362 338.225,167.862 337,167.5C 330.159,168.307 323.326,167.973 316.5,166.5C 324.875,162.909 333.375,162.576 342,165.5C 345.107,164.651 348.107,164.317 351,164.5C 351.75,165.126 352.584,165.626 353.5,166C 357.167,166.333 360.833,166.667 364.5,167C 366.833,168 368.5,169.667 369.5,172C 373.251,170.563 376.418,171.396 379,174.5C 380.525,174.888 382.192,174.888 384,174.5C 385.079,176.394 386.413,176.727 388,175.5C 393.175,177.819 398.008,180.819 402.5,184.5C 404.045,185.452 405.712,185.785 407.5,185.5 Z"/></g>
<g><path style="opacity:1" fill="#74706d" d="M 347.5,161.5 C 337.148,161.399 326.815,161.733 316.5,162.5C 322.601,161.028 328.935,160.361 335.5,160.5C 339.681,160.501 343.681,160.834 347.5,161.5 Z"/></g>
<g><path style="opacity:1" fill="#fdfdfa" d="M 408.5,310.5 C 399.499,321.833 389.166,331.833 377.5,340.5C 377.254,338.78 377.254,336.78 377.5,334.5C 378.684,331.139 380.517,328.139 383,325.5C 383.877,323.326 383.377,321.659 381.5,320.5C 380.391,319.71 379.058,319.21 377.5,319C 378.784,317.703 378.617,316.536 377,315.5C 374.723,316.117 372.556,316.784 370.5,317.5C 363.857,316.788 357.191,316.454 350.5,316.5C 349.167,316.5 347.833,316.5 346.5,316.5C 344.143,316.337 341.81,316.503 339.5,317C 337.963,318.11 337.297,319.61 337.5,321.5C 336.391,321.443 335.391,321.11 334.5,320.5C 334.167,320.5 333.833,320.5 333.5,320.5C 333.721,319.265 334.388,318.265 335.5,317.5C 329.665,317.019 323.832,317.686 318,319.5C 315.739,319.135 313.573,318.469 311.5,317.5C 311.167,318 310.833,318.5 310.5,319C 312.14,321.071 314.307,322.238 317,322.5C 322.256,320.047 327.423,320.047 332.5,322.5C 330.698,323.458 328.698,324.125 326.5,324.5C 323.353,324.923 320.186,325.256 317,325.5C 314.551,325.342 312.384,324.675 310.5,323.5C 307.691,319.446 305.358,319.779 303.5,324.5C 307.408,330.067 310.408,336.067 312.5,342.5C 311.603,341.402 310.77,341.402 310,342.5C 309.751,341.376 309.251,340.376 308.5,339.5C 304.255,340.349 303.589,339.016 306.5,335.5C 305.863,333.697 304.697,332.364 303,331.5C 302.508,332.549 302.674,333.549 303.5,334.5C 303.113,335.72 302.28,336.387 301,336.5C 296.519,334.031 292.019,331.531 287.5,329C 281.788,322.48 276.621,315.98 272,309.5C 269.736,306.744 270.236,304.578 273.5,303C 270.45,302.483 268.117,300.983 266.5,298.5C 266.421,296.071 266.755,293.571 267.5,291C 265.761,289.263 264.428,287.263 263.5,285C 262.054,278.919 261.388,272.919 261.5,267C 262.748,260.776 264.748,254.776 267.5,249C 267.355,248.228 267.022,247.561 266.5,247C 267.624,244.381 269.29,242.215 271.5,240.5C 271.304,236.649 272.804,233.316 276,230.5C 276.49,229.207 276.657,227.873 276.5,226.5C 277.675,226.719 278.675,226.386 279.5,225.5C 284.577,218.532 290.244,212.032 296.5,206C 303.621,202.939 310.621,199.606 317.5,196C 321.351,195.46 325.185,195.626 329,196.5C 337.037,194.66 345.203,194.66 353.5,196.5C 354.086,196.291 354.586,195.957 355,195.5C 363.097,199.049 371.597,202.382 380.5,205.5C 380.119,207.942 380.786,208.609 382.5,207.5C 390.639,211.302 397.639,216.635 403.5,223.5C 419.536,246.177 423.203,270.843 414.5,297.5C 412.105,301.701 410.105,306.034 408.5,310.5 Z"/></g>
<g><path style="opacity:1" fill="#1f1f1f" d="M 584.5,256.5 C 583.076,258.515 582.41,260.848 582.5,263.5C 580.869,268.024 579.869,272.691 579.5,277.5C 578.076,279.515 577.41,281.848 577.5,284.5C 573.05,300.637 569.383,316.97 566.5,333.5C 579.438,336.246 589.938,332.579 598,322.5C 600.745,316.675 603.745,311.008 607,305.5C 608.789,303.771 610.956,303.104 613.5,303.5C 611.715,310.416 610.048,317.416 608.5,324.5C 607.076,326.515 606.41,328.848 606.5,331.5C 604.465,336.969 602.798,342.635 601.5,348.5C 577.259,348.828 553.092,348.494 529,347.5C 528.974,344.16 530.64,341.827 534,340.5C 535,338.5 536,336.5 537,334.5C 543.771,305.143 550.604,275.81 557.5,246.5C 558.924,244.485 559.59,242.152 559.5,239.5C 560.99,231.87 562.323,224.203 563.5,216.5C 563.333,214.833 563.167,213.167 563,211.5C 560.446,209.397 559.946,206.897 561.5,204C 574.5,203.333 587.5,203.333 600.5,204C 601.554,205.388 601.72,206.888 601,208.5C 596.276,211.606 593.276,215.939 592,221.5C 589.048,233.093 586.548,244.76 584.5,256.5 Z"/></g>
<g><path style="opacity:1" fill="#1f1e1f" d="M 871.5,203.5 C 886.504,203.333 901.504,203.5 916.5,204C 944.724,207.267 955.557,222.767 949,250.5C 942.512,270.316 929.012,282.483 908.5,287C 901.126,287.504 893.792,288.337 886.5,289.5C 882.573,305.472 878.906,321.472 875.5,337.5C 875.582,340.093 876.748,342.093 879,343.5C 879.781,344.944 879.614,346.277 878.5,347.5C 865.216,348.482 851.883,348.815 838.5,348.5C 839.145,344.322 841.312,340.989 845,338.5C 854.665,298.842 864.332,259.176 874,219.5C 874.667,217.167 874.667,214.833 874,212.5C 872.108,210.946 870.608,209.112 869.5,207C 869.978,205.697 870.645,204.531 871.5,203.5 Z"/></g>
<g><path style="opacity:1" fill="#1f1e1f" d="M 1161.5,205.5 C 1160.08,207.515 1159.41,209.848 1159.5,212.5C 1156.27,226.026 1152.94,239.526 1149.5,253C 1153.71,250.555 1158.04,248.055 1162.5,245.5C 1167.13,244.771 1171.8,244.437 1176.5,244.5C 1183.99,244.81 1189.15,248.477 1192,255.5C 1192.67,260.833 1192.67,266.167 1192,271.5C 1189.06,284.819 1186.23,298.152 1183.5,311.5C 1182.08,313.515 1181.41,315.848 1181.5,318.5C 1179.71,324.038 1179.21,329.704 1180,335.5C 1180.96,336.894 1182.29,337.561 1184,337.5C 1186.66,336.089 1189.5,335.089 1192.5,334.5C 1192.25,339.16 1190.25,342.993 1186.5,346C 1179.58,350.955 1171.91,352.622 1163.5,351C 1158.24,348.744 1154.74,344.91 1153,339.5C 1152.33,335.167 1152.33,330.833 1153,326.5C 1157.03,308.852 1160.86,291.186 1164.5,273.5C 1165.28,265.222 1161.62,262.055 1153.5,264C 1150.76,265.614 1148.6,267.781 1147,270.5C 1141.36,291.011 1136.36,311.677 1132,332.5C 1131.46,337.637 1131.8,342.637 1133,347.5C 1121.25,348.488 1109.41,348.821 1097.5,348.5C 1097.34,346.801 1097.51,345.134 1098,343.5C 1101.09,342.077 1103.09,339.743 1104,336.5C 1106.57,326.485 1109.07,316.485 1111.5,306.5C 1112.92,304.485 1113.59,302.152 1113.5,299.5C 1119.59,271.869 1125.76,244.202 1132,216.5C 1133.12,212.712 1132.45,209.378 1130,206.5C 1129.33,205.167 1129.33,203.833 1130,202.5C 1138.99,199.996 1148.16,197.996 1157.5,196.5C 1158.77,196.57 1159.94,196.903 1161,197.5C 1161.5,200.146 1161.66,202.813 1161.5,205.5 Z"/></g>
<g><path style="opacity:1" fill="#1f1e1e" d="M 1256.5,205.5 C 1255.08,207.515 1254.41,209.848 1254.5,212.5C 1251.22,224.336 1248.56,236.336 1246.5,248.5C 1245.08,250.515 1244.41,252.848 1244.5,255.5C 1243.66,257.379 1243.33,259.379 1243.5,261.5C 1242.08,263.515 1241.41,265.848 1241.5,268.5C 1239.63,274.809 1237.96,281.309 1236.5,288C 1236.83,288.833 1237.17,289.667 1237.5,290.5C 1245.89,282.281 1253.72,273.615 1261,264.5C 1263.07,260.045 1262.9,255.712 1260.5,251.5C 1260.61,250.558 1260.94,249.725 1261.5,249C 1273.5,248.5 1285.5,248.333 1297.5,248.5C 1297.71,250.144 1297.38,251.644 1296.5,253C 1292.66,255.084 1289,257.417 1285.5,260C 1275.82,268.346 1266.82,277.346 1258.5,287C 1263.33,302.167 1268.17,317.333 1273,332.5C 1275.19,337.509 1279.02,339.842 1284.5,339.5C 1284.82,341.722 1284.16,343.556 1282.5,345C 1273.98,349.381 1264.98,351.048 1255.5,350C 1253.29,348.127 1251.46,345.96 1250,343.5C 1247.03,335.429 1244.2,327.429 1241.5,319.5C 1240.78,314.677 1239.45,310.01 1237.5,305.5C 1236.35,304.269 1235.18,304.269 1234,305.5C 1232.87,307.345 1232.37,309.345 1232.5,311.5C 1231.57,312.568 1231.23,313.901 1231.5,315.5C 1230.08,317.515 1229.41,319.848 1229.5,322.5C 1229.5,323.167 1229.5,323.833 1229.5,324.5C 1228.08,326.515 1227.41,328.848 1227.5,331.5C 1226.6,337.108 1226.6,342.608 1227.5,348C 1216.17,348.5 1204.84,348.667 1193.5,348.5C 1194.49,344.191 1196.32,340.191 1199,336.5C 1203.77,316.462 1208.61,296.462 1213.5,276.5C 1214.92,274.485 1215.59,272.152 1215.5,269.5C 1219.02,252.109 1222.85,234.776 1227,217.5C 1227.67,214.833 1227.67,212.167 1227,209.5C 1224.44,207.607 1223.94,205.273 1225.5,202.5C 1234.7,200.126 1244.04,198.126 1253.5,196.5C 1254.77,196.57 1255.94,196.903 1257,197.5C 1257.17,200.157 1257.01,202.824 1256.5,205.5 Z"/></g>
<g><path style="opacity:1" fill="#a09fa3" d="M 1161.5,205.5 C 1161.59,208.152 1160.92,210.485 1159.5,212.5C 1159.41,209.848 1160.08,207.515 1161.5,205.5 Z"/></g>
<g><path style="opacity:1" fill="#a4a1a4" d="M 1256.5,205.5 C 1256.59,208.152 1255.92,210.485 1254.5,212.5C 1254.41,209.848 1255.08,207.515 1256.5,205.5 Z"/></g>
<g><path style="opacity:1" fill="#f7f7f7" d="M 895.5,249.5 C 896.924,247.485 897.59,245.152 897.5,242.5C 898.519,235.096 899.852,227.763 901.5,220.5C 918.783,220.655 925.283,229.322 921,246.5C 918.418,264.196 908.251,272.529 890.5,271.5C 891.538,264.016 893.204,256.683 895.5,249.5 Z"/></g>
<g><path style="opacity:1" fill="#fdfbf2" d="M 408.5,310.5 C 410.105,306.034 412.105,301.701 414.5,297.5C 423.203,270.843 419.536,246.177 403.5,223.5C 397.639,216.635 390.639,211.302 382.5,207.5C 380.786,208.609 380.119,207.942 380.5,205.5C 371.597,202.382 363.097,199.049 355,195.5C 354.586,195.957 354.086,196.291 353.5,196.5C 345.203,194.66 337.037,194.66 329,196.5C 325.185,195.626 321.351,195.46 317.5,196C 310.621,199.606 303.621,202.939 296.5,206C 290.244,212.032 284.577,218.532 279.5,225.5C 278.675,226.386 277.675,226.719 276.5,226.5C 276.657,227.873 276.49,229.207 276,230.5C 272.804,233.316 271.304,236.649 271.5,240.5C 269.29,242.215 267.624,244.381 266.5,247C 267.022,247.561 267.355,248.228 267.5,249C 264.748,254.776 262.748,260.776 261.5,267C 261.388,272.919 262.054,278.919 263.5,285C 264.428,287.263 265.761,289.263 267.5,291C 266.755,293.571 266.421,296.071 266.5,298.5C 268.117,300.983 270.45,302.483 273.5,303C 270.236,304.578 269.736,306.744 272,309.5C 276.621,315.98 281.788,322.48 287.5,329C 292.019,331.531 296.519,334.031 301,336.5C 302.28,336.387 303.113,335.72 303.5,334.5C 302.674,333.549 302.508,332.549 303,331.5C 304.697,332.364 305.863,333.697 306.5,335.5C 303.589,339.016 304.255,340.349 308.5,339.5C 309.251,340.376 309.751,341.376 310,342.5C 310.77,341.402 311.603,341.402 312.5,342.5C 312.657,343.873 312.49,345.207 312,346.5C 311.5,345.333 310.667,344.5 309.5,344C 303.293,341.15 296.96,338.483 290.5,336C 264.435,314.811 254.601,287.644 261,254.5C 263.197,245.794 266.197,237.46 270,229.5C 271.154,228.257 272.488,227.257 274,226.5C 274.833,222.333 277.333,219.833 281.5,219C 285.289,214.721 289.289,210.721 293.5,207C 293.167,206.667 292.833,206.333 292.5,206C 299.901,201.304 307.901,197.637 316.5,195C 352.177,187.059 381.677,196.226 405,222.5C 422.553,249.176 425.22,277.176 413,306.5C 411.629,308.041 410.129,309.375 408.5,310.5 Z"/></g>
<g><path style="opacity:1" fill="#575655" d="M 1176.5,244.5 C 1171.8,244.437 1167.13,244.771 1162.5,245.5C 1164.81,243.953 1167.47,243.287 1170.5,243.5C 1172.7,243.505 1174.7,243.838 1176.5,244.5 Z"/></g>
<g><path style="opacity:1" fill="#605d5e" d="M 821.5,244.5 C 816.463,244.413 811.463,244.746 806.5,245.5C 809.186,244.009 812.186,243.343 815.5,243.5C 817.696,243.505 819.696,243.838 821.5,244.5 Z"/></g>
<g><path style="opacity:1" fill="#646363" d="M 559.5,239.5 C 559.59,242.152 558.924,244.485 557.5,246.5C 557.41,243.848 558.076,241.515 559.5,239.5 Z"/></g>
<g><path style="opacity:1" fill="#1f1f1f" d="M 692.5,297.5 C 691.076,299.515 690.41,301.848 690.5,304.5C 689.85,306.435 689.517,308.435 689.5,310.5C 688.076,312.515 687.41,314.848 687.5,317.5C 685.201,323.351 685.034,329.351 687,335.5C 690.861,337.164 694.361,336.664 697.5,334C 698.793,333.51 700.127,333.343 701.5,333.5C 699.918,340.256 695.918,345.089 689.5,348C 680.18,352.922 671.18,352.588 662.5,347C 660.57,344.742 659.07,342.242 658,339.5C 647.415,351.033 634.915,353.866 620.5,348C 613.122,340.668 610.622,331.834 613,321.5C 615.635,308.857 622.801,299.691 634.5,294C 645.854,290.198 657.354,287.031 669,284.5C 675.362,260.857 668.529,256.024 648.5,270C 645.833,272.667 643.167,275.333 640.5,278C 639.216,278.684 638.049,278.517 637,277.5C 635.509,271.845 634.009,266.178 632.5,260.5C 633.942,257.223 636.275,254.723 639.5,253C 656.682,242.48 674.682,240.813 693.5,248C 697.909,250.817 699.909,254.817 699.5,260C 697.869,272.652 695.536,285.152 692.5,297.5 Z"/></g>
<g><path style="opacity:1" fill="#1f1e1f" d="M 806.5,245.5 C 811.463,244.746 816.463,244.413 821.5,244.5C 828.455,245.28 833.289,248.947 836,255.5C 836.667,260.167 836.667,264.833 836,269.5C 833.765,280.507 831.599,291.507 829.5,302.5C 828.076,304.515 827.41,306.848 827.5,309.5C 827.5,310.167 827.5,310.833 827.5,311.5C 826.076,313.515 825.41,315.848 825.5,318.5C 823.814,324.029 823.314,329.696 824,335.5C 824.956,336.894 826.289,337.561 828,337.5C 830.41,336.252 832.91,335.252 835.5,334.5C 834.768,341.417 831.101,346.251 824.5,349C 815.967,352.76 807.8,352.26 800,347.5C 795.927,342.141 794.594,336.141 796,329.5C 800.82,310.221 805.32,290.888 809.5,271.5C 807.885,263.494 803.218,261.327 795.5,265C 793.393,266.264 792.393,268.097 792.5,270.5C 791.076,272.515 790.41,274.848 790.5,277.5C 786.657,295.543 782.49,313.543 778,331.5C 776.806,336.643 777.639,341.31 780.5,345.5C 780.392,346.442 780.059,347.275 779.5,348C 767.924,348.82 756.424,348.654 745,347.5C 745.642,344.127 747.309,341.127 750,338.5C 756.118,316.03 761.285,293.363 765.5,270.5C 764.758,263.89 761.091,261.723 754.5,264C 748.782,267.938 746.115,273.438 746.5,280.5C 745.076,282.515 744.41,284.848 744.5,287.5C 743.659,289.379 743.325,291.379 743.5,293.5C 742.076,295.515 741.41,297.848 741.5,300.5C 738.897,311.102 736.397,321.769 734,332.5C 733.358,337.704 733.691,342.704 735,347.5C 723.667,348.833 712.333,348.833 701,347.5C 701.265,344.18 702.931,341.513 706,339.5C 711.84,313.807 717.84,288.14 724,262.5C 724.667,260.833 724.667,259.167 724,257.5C 721.654,255.294 721.154,252.794 722.5,250C 730.801,248.361 739.135,246.861 747.5,245.5C 749.1,245.551 750.6,245.884 752,246.5C 751.782,248.587 751.949,250.587 752.5,252.5C 762.264,242.934 773.264,241.1 785.5,247C 788.202,249.597 790.536,252.43 792.5,255.5C 796.521,251.166 801.188,247.832 806.5,245.5 Z"/></g>
<g><path style="opacity:1" fill="#1f1f1f" d="M 1371.5,272.5 C 1370.08,274.515 1369.41,276.848 1369.5,279.5C 1368.66,281.379 1368.33,283.379 1368.5,285.5C 1367.08,287.515 1366.41,289.848 1366.5,292.5C 1362.13,305.835 1359.63,319.502 1359,333.5C 1360.08,335.39 1361.74,336.39 1364,336.5C 1367.83,335.796 1371.33,334.463 1374.5,332.5C 1373.54,338.904 1370.21,343.737 1364.5,347C 1355.28,352.438 1345.94,352.771 1336.5,348C 1334.03,345.559 1332.2,342.726 1331,339.5C 1318.52,353.283 1304.85,354.949 1290,344.5C 1287.42,341.664 1286.25,338.331 1286.5,334.5C 1286.32,329.12 1286.66,323.787 1287.5,318.5C 1288.55,318.649 1289.55,318.483 1290.5,318C 1289.03,317.29 1288.36,316.124 1288.5,314.5C 1293.51,302.655 1302.18,294.822 1314.5,291C 1323.42,288.717 1332.42,286.883 1341.5,285.5C 1342.89,280.762 1343.89,275.929 1344.5,271C 1345,267.332 1343.67,264.666 1340.5,263C 1337.5,262.333 1334.5,262.333 1331.5,263C 1324.62,266.87 1318.62,271.87 1313.5,278C 1311.63,278.711 1310.13,278.211 1309,276.5C 1306.83,270.656 1305.83,264.656 1306,258.5C 1322.32,244.842 1340.82,240.676 1361.5,246C 1369.22,248.278 1372.89,253.445 1372.5,261.5C 1372.06,265.163 1371.72,268.829 1371.5,272.5 Z"/></g>
<g><path style="opacity:1" fill="#a1a0a2" d="M 897.5,242.5 C 897.59,245.152 896.924,247.485 895.5,249.5C 895.41,246.848 896.076,244.515 897.5,242.5 Z"/></g>
<g><path style="opacity:1" fill="#a4a29f" d="M 225.5,243.5 C 225.59,246.152 224.924,248.485 223.5,250.5C 223.41,247.848 224.076,245.515 225.5,243.5 Z"/></g>
<g><path style="opacity:1" fill="#1f1e1f" d="M 1021.5,265.5 C 1021.41,268.152 1022.08,270.485 1023.5,272.5C 1026.25,294.119 1021.08,313.786 1008,331.5C 995.09,347.912 978.59,353.746 958.5,349C 948.029,342.84 941.862,333.673 940,321.5C 937.226,292.901 946.726,269.401 968.5,251C 984.723,240.301 1000.22,241.134 1015,253.5C 1017.95,257.075 1020.12,261.075 1021.5,265.5 Z"/></g>
<g><path style="opacity:1" fill="#a3a2a3" d="M 1246.5,248.5 C 1246.59,251.152 1245.92,253.485 1244.5,255.5C 1244.41,252.848 1245.08,250.515 1246.5,248.5 Z"/></g>
<g><path style="opacity:1" fill="#f7f7f7" d="M 967.5,305.5 C 968.924,303.485 969.59,301.152 969.5,298.5C 970.928,284.654 975.928,272.32 984.5,261.5C 990.173,256.864 994.673,257.864 998,264.5C 998.482,286.935 993.815,308.268 984,328.5C 980.769,333.534 976.269,335.368 970.5,334C 968.959,332.421 967.792,330.587 967,328.5C 966.353,320.811 966.52,313.144 967.5,305.5 Z"/></g>
<g><path style="opacity:1" fill="#a7a5a7" d="M 584.5,256.5 C 584.59,259.152 583.924,261.485 582.5,263.5C 582.41,260.848 583.076,258.515 584.5,256.5 Z"/></g>
<g><path style="opacity:1" fill="#a7a4a8" d="M 1243.5,261.5 C 1243.59,264.152 1242.92,266.485 1241.5,268.5C 1241.41,265.848 1242.08,263.515 1243.5,261.5 Z"/></g>
<g><path style="opacity:1" fill="#f0ebe2" d="M 443.5,232.5 C 446.331,238.829 448.498,245.496 450,252.5C 452.895,274.767 451.562,296.767 446,318.5C 443.354,325.787 440.188,332.787 436.5,339.5C 436.196,338.85 435.863,338.183 435.5,337.5C 437.572,332.911 439.905,328.411 442.5,324C 441.941,323.275 441.608,322.442 441.5,321.5C 445.419,308.589 448.086,295.089 449.5,281C 448.11,270.792 447.276,260.292 447,249.5C 446.178,247.212 445.511,244.878 445,242.5C 444.5,241.333 443.667,240.5 442.5,240C 443.435,237.619 443.768,235.119 443.5,232.5 Z"/></g>
<g><path style="opacity:1" fill="#1f1f1f" d="M 1075.5,243.5 C 1086.02,242.8 1096.02,244.633 1105.5,249C 1106.1,250.062 1106.43,251.228 1106.5,252.5C 1105.5,261.01 1104,269.343 1102,277.5C 1100.17,281.037 1097.84,281.371 1095,278.5C 1094.41,274.072 1093.41,269.739 1092,265.5C 1089.08,259.975 1084.58,258.142 1078.5,260C 1072.53,263.429 1068.03,268.262 1065,274.5C 1057.91,288.699 1055.24,303.699 1057,319.5C 1057.75,326.921 1061.75,330.921 1069,331.5C 1073.14,331.344 1076.97,330.177 1080.5,328C 1085.25,323.922 1089.25,319.255 1092.5,314C 1095.24,312.92 1096.9,313.754 1097.5,316.5C 1090.69,340.226 1075.02,351.726 1050.5,351C 1041.85,348.349 1035.68,342.849 1032,334.5C 1025.09,302.024 1034.25,274.857 1059.5,253C 1064.48,249.02 1069.81,245.853 1075.5,243.5 Z"/></g>
<g><path style="opacity:1" fill="#6b6b6c" d="M 1021.5,265.5 C 1022.92,267.515 1023.59,269.848 1023.5,272.5C 1022.08,270.485 1021.41,268.152 1021.5,265.5 Z"/></g>
<g><path style="opacity:1" fill="#6b6a6b" d="M 1215.5,269.5 C 1215.59,272.152 1214.92,274.485 1213.5,276.5C 1213.41,273.848 1214.08,271.515 1215.5,269.5 Z"/></g>
<g><path style="opacity:1" fill="#a8a8a8" d="M 792.5,270.5 C 792.59,273.152 791.924,275.485 790.5,277.5C 790.41,274.848 791.076,272.515 792.5,270.5 Z"/></g>
<g><path style="opacity:1" fill="#a1a2a0" d="M 1371.5,272.5 C 1371.59,275.152 1370.92,277.485 1369.5,279.5C 1369.41,276.848 1370.08,274.515 1371.5,272.5 Z"/></g>
<g><path style="opacity:1" fill="#a0a0a0" d="M 579.5,277.5 C 579.59,280.152 578.924,282.485 577.5,284.5C 577.41,281.848 578.076,279.515 579.5,277.5 Z"/></g>
<g><path style="opacity:1" fill="#aaa7a8" d="M 746.5,280.5 C 746.59,283.152 745.924,285.485 744.5,287.5C 744.41,284.848 745.076,282.515 746.5,280.5 Z"/></g>
<g><path style="opacity:1" fill="#adacad" d="M 1368.5,285.5 C 1368.59,288.152 1367.92,290.485 1366.5,292.5C 1366.41,289.848 1367.08,287.515 1368.5,285.5 Z"/></g>
<g><path style="opacity:1" fill="#b9b8b7" d="M 664.5,301.5 C 664.209,300.351 663.376,299.684 662,299.5C 659.269,300.617 656.435,301.283 653.5,301.5C 657.018,299.034 661.018,298.034 665.5,298.5C 665.737,299.791 665.404,300.791 664.5,301.5 Z"/></g>
<g><path style="opacity:1" fill="#a09b9c" d="M 743.5,293.5 C 743.59,296.152 742.924,298.485 741.5,300.5C 741.41,297.848 742.076,295.515 743.5,293.5 Z"/></g>
<g><path style="opacity:1" fill="#f6f6f6" d="M 1313.5,318.5 C 1314.92,316.485 1315.59,314.152 1315.5,311.5C 1320.61,302.776 1328.27,298.443 1338.5,298.5C 1336.95,308.407 1334.45,318.074 1331,327.5C 1327.21,332.153 1322.38,333.653 1316.5,332C 1315.3,331.097 1314.47,329.931 1314,328.5C 1313.5,325.183 1313.33,321.85 1313.5,318.5 Z"/></g>
<g><path style="opacity:1" fill="#f8f8f8" d="M 664.5,301.5 C 663.018,308.479 661.518,315.479 660,322.5C 657.277,330.446 651.777,333.613 643.5,332C 642.299,331.097 641.465,329.931 641,328.5C 638.21,316.089 642.376,307.089 653.5,301.5C 656.435,301.283 659.269,300.617 662,299.5C 663.376,299.684 664.209,300.351 664.5,301.5 Z"/></g>
<g><path style="opacity:1" fill="#a4a2a5" d="M 692.5,297.5 C 692.59,300.152 691.924,302.485 690.5,304.5C 690.41,301.848 691.076,299.515 692.5,297.5 Z"/></g>
<g><path style="opacity:1" fill="#7a797b" d="M 969.5,298.5 C 969.59,301.152 968.924,303.485 967.5,305.5C 967.41,302.848 968.076,300.515 969.5,298.5 Z"/></g>
<g><path style="opacity:1" fill="#5b5a5d" d="M 1113.5,299.5 C 1113.59,302.152 1112.92,304.485 1111.5,306.5C 1111.41,303.848 1112.08,301.515 1113.5,299.5 Z"/></g>
<g><path style="opacity:1" fill="#c7c6c7" d="M 1241.5,319.5 C 1239.73,315.715 1238.23,311.715 1237,307.5C 1236.78,308.938 1236.28,310.271 1235.5,311.5C 1235.17,310.833 1234.83,310.167 1234.5,309.5C 1233.82,310.243 1233.15,310.909 1232.5,311.5C 1232.37,309.345 1232.87,307.345 1234,305.5C 1235.18,304.269 1236.35,304.269 1237.5,305.5C 1239.45,310.01 1240.78,314.677 1241.5,319.5 Z"/></g>
<g><path style="opacity:1" fill="#a3a2a3" d="M 829.5,302.5 C 829.59,305.152 828.924,307.485 827.5,309.5C 827.41,306.848 828.076,304.515 829.5,302.5 Z"/></g>
<g><path style="opacity:1" fill="#a6a3a7" d="M 1315.5,311.5 C 1315.59,314.152 1314.92,316.485 1313.5,318.5C 1313.41,315.848 1314.08,313.515 1315.5,311.5 Z"/></g>
<g><path style="opacity:1" fill="#a5a5a5" d="M 689.5,310.5 C 689.59,313.152 688.924,315.485 687.5,317.5C 687.41,314.848 688.076,312.515 689.5,310.5 Z"/></g>
<g><path style="opacity:1" fill="#2f2f2e" d="M 350.5,316.5 C 357.191,316.454 363.857,316.788 370.5,317.5C 371.833,317.5 373.167,317.5 374.5,317.5C 374.5,318.5 374.5,319.5 374.5,320.5C 370.5,320.5 366.5,320.5 362.5,320.5C 362.389,319.883 362.056,319.383 361.5,319C 357.367,319.094 353.701,318.26 350.5,316.5 Z"/></g>
<g><path style="opacity:1" fill="#adacad" d="M 827.5,311.5 C 827.59,314.152 826.924,316.485 825.5,318.5C 825.41,315.848 826.076,313.515 827.5,311.5 Z"/></g>
<g><path style="opacity:1" fill="#a5a4a5" d="M 1183.5,311.5 C 1183.59,314.152 1182.92,316.485 1181.5,318.5C 1181.41,315.848 1182.08,313.515 1183.5,311.5 Z"/></g>
<g><path style="opacity:1" fill="#302f2c" d="M 333.5,320.5 C 332.662,320.842 332.328,321.508 332.5,322.5C 327.423,320.047 322.256,320.047 317,322.5C 314.307,322.238 312.14,321.071 310.5,319C 310.833,318.5 311.167,318 311.5,317.5C 313.573,318.469 315.739,319.135 318,319.5C 323.832,317.686 329.665,317.019 335.5,317.5C 334.388,318.265 333.721,319.265 333.5,320.5 Z"/></g>
<g><path style="opacity:1" fill="#cfcecd" d="M 346.5,316.5 C 347.833,316.5 349.167,316.5 350.5,316.5C 353.701,318.26 357.367,319.094 361.5,319C 362.056,319.383 362.389,319.883 362.5,320.5C 358.519,319.979 354.519,319.646 350.5,319.5C 350.5,320.5 350.5,321.5 350.5,322.5C 348.877,320.815 347.544,318.815 346.5,316.5 Z"/></g>
<g><path style="opacity:1" fill="#8d8d8d" d="M 1231.5,315.5 C 1231.59,318.152 1230.92,320.485 1229.5,322.5C 1229.41,319.848 1230.08,317.515 1231.5,315.5 Z"/></g>
<g><path style="opacity:1" fill="#e7e5e4" d="M 381.5,320.5 C 380.167,320.5 378.833,320.5 377.5,320.5C 377.579,321.93 377.246,323.264 376.5,324.5C 374.5,324.833 372.5,325.167 370.5,325.5C 363.752,324.748 357.085,323.748 350.5,322.5C 350.5,321.5 350.5,320.5 350.5,319.5C 354.519,319.646 358.519,319.979 362.5,320.5C 366.5,320.5 370.5,320.5 374.5,320.5C 374.5,319.5 374.5,318.5 374.5,317.5C 373.167,317.5 371.833,317.5 370.5,317.5C 372.556,316.784 374.723,316.117 377,315.5C 378.617,316.536 378.784,317.703 377.5,319C 379.058,319.21 380.391,319.71 381.5,320.5 Z"/></g>
<g><path style="opacity:1" fill="#aaa7a9" d="M 608.5,324.5 C 608.59,327.152 607.924,329.485 606.5,331.5C 606.41,328.848 607.076,326.515 608.5,324.5 Z"/></g>
<g><path style="opacity:1" fill="#525051" d="M 1288.5,314.5 C 1288.36,316.124 1289.03,317.29 1290.5,318C 1289.55,318.483 1288.55,318.649 1287.5,318.5C 1286.66,323.787 1286.32,329.12 1286.5,334.5C 1285.35,330.019 1285.18,325.352 1286,320.5C 1286.57,318.277 1287.4,316.277 1288.5,314.5 Z"/></g>
<g><path style="opacity:1" fill="#a9a7aa" d="M 1229.5,324.5 C 1229.59,327.152 1228.92,329.485 1227.5,331.5C 1227.41,328.848 1228.08,326.515 1229.5,324.5 Z"/></g>
<g><path style="opacity:1" fill="#22201e" d="M 346.5,316.5 C 347.544,318.815 348.877,320.815 350.5,322.5C 357.085,323.748 363.752,324.748 370.5,325.5C 372.5,325.167 374.5,324.833 376.5,324.5C 377.246,323.264 377.579,321.93 377.5,320.5C 378.833,320.5 380.167,320.5 381.5,320.5C 383.377,321.659 383.877,323.326 383,325.5C 380.517,328.139 378.684,331.139 377.5,334.5C 370.558,348.732 364.391,363.399 359,378.5C 357.837,381.971 358.67,384.638 361.5,386.5C 361.5,386.833 361.5,387.167 361.5,387.5C 360.5,390.833 359.5,394.167 358.5,397.5C 358.5,396.167 358.5,394.833 358.5,393.5C 357.5,393.5 356.5,393.5 355.5,393.5C 355.5,394.5 355.5,395.5 355.5,396.5C 355.5,406.167 355.5,415.833 355.5,425.5C 355.167,425.5 354.833,425.5 354.5,425.5C 354.5,414.833 354.5,404.167 354.5,393.5C 352.833,393.5 351.167,393.5 349.5,393.5C 349.5,393.167 349.5,392.833 349.5,392.5C 351.806,392.007 354.139,391.674 356.5,391.5C 357.376,391.631 358.043,391.298 358.5,390.5C 356.709,389.83 355.042,389.163 353.5,388.5C 355.483,388.843 356.817,388.176 357.5,386.5C 355.833,385.833 354.167,385.167 352.5,384.5C 353.625,383.348 353.625,382.348 352.5,381.5C 352.167,380.833 351.833,380.167 351.5,379.5C 352.794,377.952 353.461,375.952 353.5,373.5C 353.167,371.5 352.833,369.5 352.5,367.5C 350.444,368.628 349.444,370.462 349.5,373C 349.581,374.924 349.914,376.757 350.5,378.5C 350.158,379.338 349.492,379.672 348.5,379.5C 347.761,379.369 347.094,379.536 346.5,380C 347.381,380.708 348.047,381.542 348.5,382.5C 347.766,383.708 347.433,385.041 347.5,386.5C 344.061,386.253 340.728,386.586 337.5,387.5C 334.302,386.964 331.635,387.631 329.5,389.5C 328.778,389.082 328.278,388.416 328,387.5C 327.23,388.598 326.397,388.598 325.5,387.5C 326.685,386.143 327.685,384.643 328.5,383C 323.805,369.131 318.472,355.631 312.5,342.5C 310.408,336.067 307.408,330.067 303.5,324.5C 305.358,319.779 307.691,319.446 310.5,323.5C 310.5,324.5 310.5,325.5 310.5,326.5C 314.846,326.666 319.179,326.499 323.5,326C 324.737,325.768 325.737,325.268 326.5,324.5C 328.698,324.125 330.698,323.458 332.5,322.5C 332.328,321.508 332.662,320.842 333.5,320.5C 333.833,320.5 334.167,320.5 334.5,320.5C 335.849,329.688 336.849,339.021 337.5,348.5C 337.5,351.833 337.5,355.167 337.5,358.5C 340.337,360.402 343.671,361.069 347.5,360.5C 347.5,359.5 347.5,358.5 347.5,357.5C 347.906,346.436 347.406,335.436 346,324.5C 345.623,325.942 344.79,326.942 343.5,327.5C 337.591,328.926 335.591,326.926 337.5,321.5C 337.297,319.61 337.963,318.11 339.5,317C 341.81,316.503 344.143,316.337 346.5,316.5 Z"/></g>
<g><path style="opacity:1" fill="#f9f8f9" d="M 353.5,362.5 C 353.5,363.5 353.5,364.5 353.5,365.5C 352.5,365.5 351.5,365.5 350.5,365.5C 350.5,364.5 350.5,363.5 350.5,362.5C 351.5,362.5 352.5,362.5 353.5,362.5 Z"/></g>
<g><path style="opacity:1" fill="#878480" d="M 335.5,362.5 C 334.167,362.5 332.833,362.5 331.5,362.5C 331.5,363.833 331.5,365.167 331.5,366.5C 330.549,365.081 330.216,363.415 330.5,361.5C 332.415,361.216 334.081,361.549 335.5,362.5 Z"/></g>
<g><path style="opacity:1" fill="#605a55" d="M 346.5,357.5 C 346.833,357.5 347.167,357.5 347.5,357.5C 347.5,358.5 347.5,359.5 347.5,360.5C 343.671,361.069 340.337,360.402 337.5,358.5C 340.713,358.81 343.713,358.477 346.5,357.5 Z"/></g>
<g><path style="opacity:1" fill="#888680" d="M 350.5,340.5 C 350.5,343.167 350.5,345.833 350.5,348.5C 350.5,351.5 350.5,354.5 350.5,357.5C 352.415,357.216 354.081,357.549 355.5,358.5C 353.5,358.5 351.5,358.5 349.5,358.5C 349.177,352.31 349.51,346.31 350.5,340.5 Z"/></g>
<g><path style="opacity:1" fill="#b3ada6" d="M 337.5,348.5 C 338.477,351.287 338.81,354.287 338.5,357.5C 341.167,357.5 343.833,357.5 346.5,357.5C 343.713,358.477 340.713,358.81 337.5,358.5C 337.5,355.167 337.5,351.833 337.5,348.5 Z"/></g>
<g><path style="opacity:1" fill="#f3eedf" d="M 368.5,347.5 C 364.175,358.031 360.008,368.697 356,379.5C 356.033,372.323 355.866,365.323 355.5,358.5C 354.081,357.549 352.415,357.216 350.5,357.5C 350.5,354.5 350.5,351.5 350.5,348.5C 355.855,348.186 361.022,347.186 366,345.5C 366.075,347.935 366.908,348.602 368.5,347.5 Z"/></g>
<g><path style="opacity:1" fill="#535050" d="M 334.5,320.5 C 335.391,321.11 336.391,321.443 337.5,321.5C 335.591,326.926 337.591,328.926 343.5,327.5C 341.482,328.047 339.649,329.047 338,330.5C 337.501,336.491 337.334,342.491 337.5,348.5C 336.849,339.021 335.849,329.688 334.5,320.5 Z"/></g>
<g><path style="opacity:1" fill="#f7f6f1" d="M 328.5,358.5 C 327.679,361.641 327.179,364.975 327,368.5C 326.617,367.944 326.117,367.611 325.5,367.5C 320.601,354.886 315.601,342.219 310.5,329.5C 316.904,328.855 323.238,327.855 329.5,326.5C 330.772,326.57 331.938,326.903 333,327.5C 334.451,337.729 334.951,348.062 334.5,358.5C 332.5,358.5 330.5,358.5 328.5,358.5 Z"/></g>
<g><path style="opacity:1" fill="#4b494a" d="M 360.5,326.5 C 365.414,326.362 370.081,327.028 374.5,328.5C 369.586,328.638 364.919,327.972 360.5,326.5 Z"/></g>
<g><path style="opacity:1" fill="#f8f8f6" d="M 360.5,326.5 C 364.919,327.972 369.586,328.638 374.5,328.5C 374.923,329.265 375.257,330.098 375.5,331C 372.868,336.402 370.535,341.902 368.5,347.5C 366.908,348.602 366.075,347.935 366,345.5C 361.022,347.186 355.855,348.186 350.5,348.5C 350.5,345.833 350.5,343.167 350.5,340.5C 350.18,335.469 351.347,330.803 354,326.5C 356.081,325.667 358.248,325.667 360.5,326.5 Z"/></g>
<g><path style="opacity:1" fill="#f8f6f3" d="M 347.5,357.5 C 347.167,357.5 346.833,357.5 346.5,357.5C 343.833,357.5 341.167,357.5 338.5,357.5C 338.81,354.287 338.477,351.287 337.5,348.5C 337.334,342.491 337.501,336.491 338,330.5C 339.649,329.047 341.482,328.047 343.5,327.5C 344.79,326.942 345.623,325.942 346,324.5C 347.406,335.436 347.906,346.436 347.5,357.5 Z"/></g>
<g><path style="opacity:1" fill="#585652" d="M 310.5,323.5 C 312.384,324.675 314.551,325.342 317,325.5C 320.186,325.256 323.353,324.923 326.5,324.5C 325.737,325.268 324.737,325.768 323.5,326C 319.179,326.499 314.846,326.666 310.5,326.5C 310.5,325.5 310.5,324.5 310.5,323.5 Z"/></g>
<g><path style="opacity:1" fill="#acabab" d="M 338.5,322.5 C 344.996,324.029 344.996,325.029 338.5,325.5C 338.5,324.5 338.5,323.5 338.5,322.5 Z"/></g>
<g><path style="opacity:1" fill="#837f7e" d="M 306.5,322.5 C 307.586,322.62 308.253,323.287 308.5,324.5C 309.175,329.627 308.175,329.627 305.5,324.5C 305.863,323.817 306.196,323.15 306.5,322.5 Z"/></g>
<g><path style="opacity:1" fill="#c8c5c5" d="M 342.5,318.5 C 343.5,318.5 344.5,318.5 345.5,318.5C 344.754,322.31 343.754,322.31 342.5,318.5 Z"/></g>
<g><path style="opacity:1" fill="#eae7e5" d="M 335.5,362.5 C 335.5,363.833 335.5,365.167 335.5,366.5C 334.167,366.5 332.833,366.5 331.5,366.5C 331.5,365.167 331.5,363.833 331.5,362.5C 332.833,362.5 334.167,362.5 335.5,362.5 Z"/></g>
<g><path style="opacity:1" fill="#e8e5df" d="M 338.5,362.5 C 341.5,362.5 344.5,362.5 347.5,362.5C 347.5,363.833 347.5,365.167 347.5,366.5C 344.5,366.5 341.5,366.5 338.5,366.5C 338.5,365.167 338.5,363.833 338.5,362.5 Z"/></g>
<g><path style="opacity:1" fill="#8a8a89" d="M 353.5,362.5 C 352.5,362.5 351.5,362.5 350.5,362.5C 350.5,363.5 350.5,364.5 350.5,365.5C 351.5,365.5 352.5,365.5 353.5,365.5C 352.432,366.434 351.099,366.768 349.5,366.5C 349.5,364.833 349.5,363.167 349.5,361.5C 351.099,361.232 352.432,361.566 353.5,362.5 Z"/></g>
<g><path style="opacity:1" fill="#73736d" d="M 338.5,362.5 C 338.5,363.833 338.5,365.167 338.5,366.5C 341.5,366.5 344.5,366.5 347.5,366.5C 344.375,367.479 341.042,367.813 337.5,367.5C 337.216,365.585 337.549,363.919 338.5,362.5 Z"/></g>
<g><path style="opacity:1" fill="#c4bfbc" d="M 328.5,358.5 C 328.935,364.842 329.102,371.175 329,377.5C 327.53,374.256 326.363,370.923 325.5,367.5C 326.117,367.611 326.617,367.944 327,368.5C 327.179,364.975 327.679,361.641 328.5,358.5 Z"/></g>
<g><path style="opacity:1" fill="#d1cfcb" d="M 351.5,379.5 C 351.5,378.833 351.167,378.5 350.5,378.5C 349.914,376.757 349.581,374.924 349.5,373C 349.444,370.462 350.444,368.628 352.5,367.5C 352.833,369.5 353.167,371.5 353.5,373.5C 353.461,375.952 352.794,377.952 351.5,379.5 Z"/></g>
<g><path style="opacity:1" fill="#eeebe5" d="M 338.5,369.5 C 341.5,369.5 344.5,369.5 347.5,369.5C 347.5,372.167 347.5,374.833 347.5,377.5C 344.615,377.194 341.948,377.527 339.5,378.5C 338.523,375.713 338.19,372.713 338.5,369.5 Z"/></g>
<g><path style="opacity:1" fill="#e5e2de" d="M 335.5,369.5 C 335.5,374.833 335.5,380.167 335.5,385.5C 334.5,385.5 333.5,385.5 332.5,385.5C 331.725,380.203 331.392,374.87 331.5,369.5C 332.833,369.5 334.167,369.5 335.5,369.5 Z"/></g>
<g><path style="opacity:1" fill="#6c6a62" d="M 335.5,369.5 C 336.326,374.316 336.826,379.316 337,384.5C 337.174,379.316 337.674,374.316 338.5,369.5C 338.19,372.713 338.523,375.713 339.5,378.5C 339.5,379.167 339.833,379.5 340.5,379.5C 340.5,379.833 340.5,380.167 340.5,380.5C 340.5,382.167 340.5,383.833 340.5,385.5C 338.833,385.5 337.167,385.5 335.5,385.5C 335.5,380.167 335.5,374.833 335.5,369.5 Z"/></g>
<g><path style="opacity:1" fill="#c9c7c3" d="M 348.5,379.5 C 349.625,380.652 349.625,381.652 348.5,382.5C 348.047,381.542 347.381,380.708 346.5,380C 347.094,379.536 347.761,379.369 348.5,379.5 Z"/></g>
<g><path style="opacity:1" fill="#c7c6c3" d="M 340.5,380.5 C 340.5,380.167 340.5,379.833 340.5,379.5C 343.491,379.33 345.491,380.663 346.5,383.5C 345.675,384.386 344.675,384.719 343.5,384.5C 343.5,383.167 343.5,381.833 343.5,380.5C 342.5,380.5 341.5,380.5 340.5,380.5 Z"/></g>
<g><path style="opacity:1" fill="#d1cfcd" d="M 352.5,381.5 C 353.625,382.348 353.625,383.348 352.5,384.5C 350.015,383.74 350.015,382.74 352.5,381.5 Z"/></g>
<g><path style="opacity:1" fill="#55524e" d="M 350.5,378.5 C 351.167,378.5 351.5,378.833 351.5,379.5C 351.833,380.167 352.167,380.833 352.5,381.5C 350.015,382.74 350.015,383.74 352.5,384.5C 354.167,385.167 355.833,385.833 357.5,386.5C 354.167,386.5 350.833,386.5 347.5,386.5C 347.433,385.041 347.766,383.708 348.5,382.5C 349.625,381.652 349.625,380.652 348.5,379.5C 349.492,379.672 350.158,379.338 350.5,378.5 Z"/></g>
<g><path style="opacity:1" fill="#eae6e4" d="M 347.5,386.5 C 350.833,386.5 354.167,386.5 357.5,386.5C 356.817,388.176 355.483,388.843 353.5,388.5C 352.5,388.5 351.5,388.5 350.5,388.5C 345.968,388.818 341.634,388.485 337.5,387.5C 340.728,386.586 344.061,386.253 347.5,386.5 Z"/></g>
<g><path style="opacity:1" fill="#a4a4a4" d="M 411.5,394.5 C 411.59,397.152 410.924,399.485 409.5,401.5C 409.41,398.848 410.076,396.515 411.5,394.5 Z"/></g>
<g><path style="opacity:1" fill="#a2a0a2" d="M 275.5,399.5 C 276.924,401.515 277.59,403.848 277.5,406.5C 276.076,404.485 275.41,402.152 275.5,399.5 Z"/></g>
<g><path style="opacity:1" fill="#8c8985" d="M 361.5,386.5 C 362.495,398.989 362.829,411.656 362.5,424.5C 365.167,424.5 367.833,424.5 370.5,424.5C 367.713,425.477 364.713,425.81 361.5,425.5C 361.5,412.833 361.5,400.167 361.5,387.5C 361.5,387.167 361.5,386.833 361.5,386.5 Z"/></g>
<g><path style="opacity:1" fill="#343733" d="M 969.5,418.5 C 969.5,416.5 969.5,414.5 969.5,412.5C 951.833,412.5 934.167,412.5 916.5,412.5C 916.5,414.5 916.5,416.5 916.5,418.5C 916.167,418.5 915.833,418.5 915.5,418.5C 915.5,416.167 915.5,413.833 915.5,411.5C 933.833,411.5 952.167,411.5 970.5,411.5C 970.802,414.059 970.468,416.393 969.5,418.5 Z"/></g>
<g><path style="opacity:1" fill="#1a1919" d="M 781.5,412.5 C 781.5,414.5 781.5,416.5 781.5,418.5C 770.167,418.5 758.833,418.5 747.5,418.5C 747.173,427.682 747.507,436.682 748.5,445.5C 757.5,445.5 766.5,445.5 775.5,445.5C 775.5,447.833 775.5,450.167 775.5,452.5C 766.167,452.5 756.833,452.5 747.5,452.5C 747.5,462.833 747.5,473.167 747.5,483.5C 744.833,483.5 742.167,483.5 739.5,483.5C 739.5,459.833 739.5,436.167 739.5,412.5C 753.5,412.5 767.5,412.5 781.5,412.5 Z"/></g>
<g><path style="opacity:1" fill="#201f1f" d="M 998.5,410.5 C 1019.05,407.84 1032.55,416.174 1039,435.5C 1042.26,452.038 1038.42,466.538 1027.5,479C 1013.15,487.939 999.154,487.606 985.5,478C 979.31,471.794 975.81,464.294 975,455.5C 972.108,440.551 975.941,427.718 986.5,417C 990.147,414.013 994.147,411.846 998.5,410.5 Z"/></g>
<g><path style="opacity:1" fill="#fafafa" d="M 985.5,439.5 C 986.924,437.485 987.59,435.152 987.5,432.5C 992.078,420.471 1000.74,415.971 1013.5,419C 1022.05,422.246 1027.22,428.412 1029,437.5C 1029.99,446.631 1029.33,455.631 1027,464.5C 1019.27,478.052 1008.43,481.219 994.5,474C 991.129,470.764 988.629,466.931 987,462.5C 985.644,454.905 985.144,447.238 985.5,439.5 Z"/></g>
<g><path style="opacity:1" fill="#1e1d1d" d="M 840.5,481.5 C 838.012,483.388 835.012,484.055 831.5,483.5C 829.206,477.248 827.206,470.915 825.5,464.5C 816.494,464.334 807.494,464.5 798.5,465C 795.808,470.604 793.808,476.438 792.5,482.5C 789.272,483.414 785.939,483.747 782.5,483.5C 790.376,459.77 798.542,436.103 807,412.5C 809.719,411.556 812.552,411.223 815.5,411.5C 824.126,434.634 832.459,457.967 840.5,481.5 Z"/></g>
<g><path style="opacity:1" fill="#201f1f" d="M 861.5,433.5 C 860.076,435.515 859.41,437.848 859.5,440.5C 858.14,451.149 859.973,461.149 865,470.5C 871.774,477.424 879.94,479.924 889.5,478C 894.464,475.964 899.13,473.464 903.5,470.5C 905.596,471.592 906.929,473.259 907.5,475.5C 905.734,478.208 903.401,480.208 900.5,481.5C 897.603,482.129 894.936,483.129 892.5,484.5C 869.869,489.273 855.369,480.606 849,458.5C 845.175,436.312 853.342,420.479 873.5,411C 881.222,410.188 888.889,410.522 896.5,412C 899.533,413.178 902.199,414.844 904.5,417C 903.368,419.133 901.868,420.966 900,422.5C 897.711,420.94 895.211,419.773 892.5,419C 877.912,415.298 867.579,420.132 861.5,433.5 Z"/></g>
<g><path style="opacity:1" fill="#f0f0f0" d="M 822.5,457.5 C 815.5,457.5 808.5,457.5 801.5,457.5C 801.5,456.167 801.5,454.833 801.5,453.5C 804.247,443.259 807.58,433.259 811.5,423.5C 815.479,434.758 819.146,446.091 822.5,457.5 Z"/></g>
<g><path style="opacity:1" fill="#1c1b1a" d="M 969.5,418.5 C 962.167,418.5 954.833,418.5 947.5,418.5C 947.5,440.167 947.5,461.833 947.5,483.5C 944.5,483.5 941.5,483.5 938.5,483.5C 938.5,461.833 938.5,440.167 938.5,418.5C 931.167,418.5 923.833,418.5 916.5,418.5C 916.5,416.5 916.5,414.5 916.5,412.5C 934.167,412.5 951.833,412.5 969.5,412.5C 969.5,414.5 969.5,416.5 969.5,418.5 Z"/></g>
<g><path style="opacity:1" fill="#171615" d="M 325.5,387.5 C 326.397,388.598 327.23,388.598 328,387.5C 328.278,388.416 328.778,389.082 329.5,389.5C 330.167,389.5 330.833,389.5 331.5,389.5C 331.5,389.833 331.5,390.167 331.5,390.5C 330.624,390.369 329.957,390.702 329.5,391.5C 330.325,392.386 331.325,392.719 332.5,392.5C 337.167,393.167 341.833,393.833 346.5,394.5C 346.5,405.167 346.5,415.833 346.5,426.5C 349.059,426.802 351.393,426.468 353.5,425.5C 353.833,425.5 354.167,425.5 354.5,425.5C 354.833,425.5 355.167,425.5 355.5,425.5C 356.167,425.5 356.833,425.5 357.5,425.5C 358.494,416.348 358.827,407.015 358.5,397.5C 359.5,394.167 360.5,390.833 361.5,387.5C 361.5,400.167 361.5,412.833 361.5,425.5C 360.653,426.966 359.32,427.8 357.5,428C 361.025,428.179 364.359,428.679 367.5,429.5C 352.202,430.565 336.868,431.232 321.5,431.5C 313.798,431.569 306.131,431.069 298.5,430C 306.677,429.829 314.677,429.329 322.5,428.5C 323.5,428.5 324.5,428.5 325.5,428.5C 325.5,414.833 325.5,401.167 325.5,387.5 Z"/></g>
<g><path style="opacity:1" fill="#6c6962" d="M 347.5,394.5 C 347.842,393.662 348.508,393.328 349.5,393.5C 351.167,393.5 352.833,393.5 354.5,393.5C 354.5,404.167 354.5,414.833 354.5,425.5C 354.167,425.5 353.833,425.5 353.5,425.5C 353.5,415.167 353.5,404.833 353.5,394.5C 351.5,394.5 349.5,394.5 347.5,394.5 Z"/></g>
<g><path style="opacity:1" fill="#8b8781" d="M 346.5,394.5 C 346.833,394.5 347.167,394.5 347.5,394.5C 347.5,404.833 347.5,415.167 347.5,425.5C 349.5,425.5 351.5,425.5 353.5,425.5C 351.393,426.468 349.059,426.802 346.5,426.5C 346.5,415.833 346.5,405.167 346.5,394.5 Z"/></g>
<g><path style="opacity:1" fill="#e2e0da" d="M 357.5,425.5 C 356.833,425.5 356.167,425.5 355.5,425.5C 355.5,415.833 355.5,406.167 355.5,396.5C 356.222,396.082 356.722,395.416 357,394.5C 357.5,404.828 357.666,415.161 357.5,425.5 Z"/></g>
<g><path style="opacity:1" fill="#7c7a74" d="M 338.5,426.5 C 337.506,416.681 337.173,406.681 337.5,396.5C 337.5,396.167 337.5,395.833 337.5,395.5C 339.607,394.532 341.941,394.198 344.5,394.5C 344.5,405.5 344.5,416.5 344.5,427.5C 342.265,427.795 340.265,427.461 338.5,426.5 Z"/></g>
<g><path style="opacity:1" fill="#f9f4ed" d="M 338.5,426.5 C 338.5,416.167 338.5,405.833 338.5,395.5C 340.167,395.5 341.833,395.5 343.5,395.5C 343.5,405.833 343.5,416.167 343.5,426.5C 341.833,426.5 340.167,426.5 338.5,426.5 Z"/></g>
<g><path style="opacity:1" fill="#2d2a26" d="M 335.5,394.5 C 336.167,394.833 336.833,395.167 337.5,395.5C 337.5,395.833 337.5,396.167 337.5,396.5C 336.67,406.325 336.17,416.325 336,426.5C 335.667,421.5 335.333,416.5 335,411.5C 334.827,417.016 334.327,422.349 333.5,427.5C 333.5,419.5 333.5,411.5 333.5,403.5C 333.672,394.19 334.172,394.19 335,403.5C 335.498,400.518 335.665,397.518 335.5,394.5 Z"/></g>
<g><path style="opacity:1" fill="#ebe8e3" d="M 332.5,394.5 C 332.19,397.713 332.523,400.713 333.5,403.5C 333.5,411.5 333.5,419.5 333.5,427.5C 332.167,427.5 330.833,427.5 329.5,427.5C 329.5,416.5 329.5,405.5 329.5,394.5C 330.5,394.5 331.5,394.5 332.5,394.5 Z"/></g>
<g><path style="opacity:1" fill="#afacab" d="M 358.5,397.5 C 358.827,407.015 358.494,416.348 357.5,425.5C 357.666,415.161 357.5,404.828 357,394.5C 356.722,395.416 356.222,396.082 355.5,396.5C 355.5,395.5 355.5,394.5 355.5,393.5C 356.5,393.5 357.5,393.5 358.5,393.5C 358.5,394.833 358.5,396.167 358.5,397.5 Z"/></g>
<g><path style="opacity:1" fill="#faf6ec" d="M 347.5,394.5 C 349.5,394.5 351.5,394.5 353.5,394.5C 353.5,404.833 353.5,415.167 353.5,425.5C 351.5,425.5 349.5,425.5 347.5,425.5C 347.5,415.167 347.5,404.833 347.5,394.5 Z"/></g>
<g><path style="opacity:1" fill="#68645f" d="M 332.5,394.5 C 333.5,394.5 334.5,394.5 335.5,394.5C 335.665,397.518 335.498,400.518 335,403.5C 334.172,394.19 333.672,394.19 333.5,403.5C 332.523,400.713 332.19,397.713 332.5,394.5 Z"/></g>
<g><path style="opacity:1" fill="#a19f9f" d="M 331.5,390.5 C 332.609,391.29 333.942,391.79 335.5,392C 334.552,392.483 333.552,392.649 332.5,392.5C 331.325,392.719 330.325,392.386 329.5,391.5C 329.957,390.702 330.624,390.369 331.5,390.5 Z"/></g>
<g><path style="opacity:1" fill="#e6e2df" d="M 339.5,390.5 C 340.167,390.5 340.833,390.5 341.5,390.5C 346.695,390.179 351.695,390.513 356.5,391.5C 354.139,391.674 351.806,392.007 349.5,392.5C 345.774,392.823 342.107,392.489 338.5,391.5C 338.624,390.893 338.957,390.56 339.5,390.5 Z"/></g>
<g><path style="opacity:1" fill="#3c3933" d="M 331.5,389.5 C 334.385,389.194 337.052,389.527 339.5,390.5C 338.957,390.56 338.624,390.893 338.5,391.5C 342.107,392.489 345.774,392.823 349.5,392.5C 349.5,392.833 349.5,393.167 349.5,393.5C 348.508,393.328 347.842,393.662 347.5,394.5C 347.167,394.5 346.833,394.5 346.5,394.5C 341.833,393.833 337.167,393.167 332.5,392.5C 333.552,392.649 334.552,392.483 335.5,392C 333.942,391.79 332.609,391.29 331.5,390.5C 331.5,390.167 331.5,389.833 331.5,389.5 Z"/></g>
<g><path style="opacity:1" fill="#65615d" d="M 350.5,388.5 C 351.5,388.5 352.5,388.5 353.5,388.5C 355.042,389.163 356.709,389.83 358.5,390.5C 358.043,391.298 357.376,391.631 356.5,391.5C 351.695,390.513 346.695,390.179 341.5,390.5C 344.5,389.833 347.5,389.167 350.5,388.5 Z"/></g>
<g><path style="opacity:1" fill="#b5afab" d="M 337.5,387.5 C 341.634,388.485 345.968,388.818 350.5,388.5C 347.5,389.167 344.5,389.833 341.5,390.5C 340.833,390.5 340.167,390.5 339.5,390.5C 337.052,389.527 334.385,389.194 331.5,389.5C 330.833,389.5 330.167,389.5 329.5,389.5C 331.635,387.631 334.302,386.964 337.5,387.5 Z"/></g>
<g><path style="opacity:1" fill="#5b5455" d="M 321.5,431.5 C 336.868,431.232 352.202,430.565 367.5,429.5C 375.158,429.014 382.825,428.68 390.5,428.5C 389.908,431.127 389.575,433.794 389.5,436.5C 375.768,437.413 362.102,438.913 348.5,441C 330.495,442.219 312.495,443.386 294.5,444.5C 294.071,439.075 296.404,435.242 301.5,433C 308.346,432.828 315.013,432.328 321.5,431.5 Z"/></g>
<g><path style="opacity:1" fill="#9d9b9c" d="M 781.5,418.5 C 770.679,419.495 759.679,419.828 748.5,419.5C 748.5,428.167 748.5,436.833 748.5,445.5C 747.507,436.682 747.173,427.682 747.5,418.5C 758.833,418.5 770.167,418.5 781.5,418.5 Z"/></g>
<g><path style="opacity:1" fill="#1d1c1d" d="M 1151.5,455.5 C 1150.51,464.652 1150.17,473.985 1150.5,483.5C 1147.83,483.5 1145.17,483.5 1142.5,483.5C 1142.83,473.985 1142.49,464.652 1141.5,455.5C 1133.43,441.03 1125.1,426.697 1116.5,412.5C 1120.04,411.209 1123.54,411.209 1127,412.5C 1133.5,424.167 1140,435.833 1146.5,447.5C 1153.16,436.181 1159.33,424.515 1165,412.5C 1168.41,411.378 1171.91,411.211 1175.5,412C 1167.36,426.447 1159.36,440.947 1151.5,455.5 Z"/></g>
<g><path style="opacity:1" fill="#3d3d3b" d="M 781.5,412.5 C 767.5,412.5 753.5,412.5 739.5,412.5C 739.5,436.167 739.5,459.833 739.5,483.5C 739.167,483.5 738.833,483.5 738.5,483.5C 738.5,459.5 738.5,435.5 738.5,411.5C 753.01,411.171 767.343,411.504 781.5,412.5 Z"/></g>
<g><path style="opacity:1" fill="#1d1c1c" d="M 1054.5,411.5 C 1065.17,411.333 1075.84,411.5 1086.5,412C 1103.42,416.013 1108.59,426.18 1102,442.5C 1098.56,447.975 1093.72,451.642 1087.5,453.5C 1093.76,463.027 1099.76,472.694 1105.5,482.5C 1102.71,483.477 1099.71,483.81 1096.5,483.5C 1090.49,474.13 1084.49,464.797 1078.5,455.5C 1073.69,454.513 1068.69,454.179 1063.5,454.5C 1063.5,464.167 1063.5,473.833 1063.5,483.5C 1060.5,483.5 1057.5,483.5 1054.5,483.5C 1054.5,459.5 1054.5,435.5 1054.5,411.5 Z"/></g>
<g><path style="opacity:1" fill="#fafafa" d="M 1081.5,419.5 C 1090.21,419.542 1094.54,423.876 1094.5,432.5C 1094.81,441.526 1090.47,446.526 1081.5,447.5C 1075.83,447.5 1070.17,447.5 1064.5,447.5C 1064.5,438.167 1064.5,428.833 1064.5,419.5C 1070.17,419.5 1075.83,419.5 1081.5,419.5 Z"/></g>
<g><path style="opacity:1" fill="#a6a6a4" d="M 915.5,418.5 C 915.833,418.5 916.167,418.5 916.5,418.5C 923.833,418.5 931.167,418.5 938.5,418.5C 938.5,440.167 938.5,461.833 938.5,483.5C 941.5,483.5 944.5,483.5 947.5,483.5C 947.5,483.833 947.5,484.167 947.5,484.5C 944.167,484.5 940.833,484.5 937.5,484.5C 937.5,462.833 937.5,441.167 937.5,419.5C 929.981,419.825 922.648,419.492 915.5,418.5 Z"/></g>
<g><path style="opacity:1" fill="#b1b0af" d="M 1081.5,419.5 C 1075.83,419.5 1070.17,419.5 1064.5,419.5C 1064.5,428.833 1064.5,438.167 1064.5,447.5C 1070.17,447.5 1075.83,447.5 1081.5,447.5C 1075.69,448.49 1069.69,448.823 1063.5,448.5C 1063.5,438.5 1063.5,428.5 1063.5,418.5C 1069.69,418.177 1075.69,418.51 1081.5,419.5 Z"/></g>
<g><path style="opacity:1" fill="#ababaa" d="M 987.5,432.5 C 987.59,435.152 986.924,437.485 985.5,439.5C 985.41,436.848 986.076,434.515 987.5,432.5 Z"/></g>
<g><path style="opacity:1" fill="#a0a0a0" d="M 861.5,433.5 C 861.59,436.152 860.924,438.485 859.5,440.5C 859.41,437.848 860.076,435.515 861.5,433.5 Z"/></g>
<g><path style="opacity:1" fill="#edeae9" d="M 388.5,442.5 C 359.751,447.613 330.751,450.113 301.5,450C 300.027,449.29 299.36,448.124 299.5,446.5C 310.852,446.473 322.186,445.973 333.5,445C 353.13,442.394 372.797,440.228 392.5,438.5C 392.512,441.142 391.179,442.475 388.5,442.5 Z"/></g>
<g><path style="opacity:1" fill="#afaead" d="M 1054.5,411.5 C 1054.5,435.5 1054.5,459.5 1054.5,483.5C 1057.5,483.5 1060.5,483.5 1063.5,483.5C 1063.5,473.833 1063.5,464.167 1063.5,454.5C 1068.69,454.179 1073.69,454.513 1078.5,455.5C 1073.83,455.5 1069.17,455.5 1064.5,455.5C 1064.5,465.167 1064.5,474.833 1064.5,484.5C 1060.83,484.5 1057.17,484.5 1053.5,484.5C 1053.17,459.994 1053.5,435.661 1054.5,411.5 Z"/></g>
<g><path style="opacity:1" fill="#c9c8c8" d="M 969.5,418.5 C 962.687,419.491 955.687,419.825 948.5,419.5C 948.831,441.34 948.497,463.006 947.5,484.5C 947.5,484.167 947.5,483.833 947.5,483.5C 947.5,461.833 947.5,440.167 947.5,418.5C 954.833,418.5 962.167,418.5 969.5,418.5 Z"/></g>
<g><path style="opacity:1" fill="#5b5656" d="M 388.5,442.5 C 388.586,443.496 388.252,444.329 387.5,445C 385.5,445.667 383.5,446.333 381.5,447C 368.079,448.018 354.746,449.685 341.5,452C 331.499,452.553 321.499,453.053 311.5,453.5C 307.21,452.745 302.877,451.745 298.5,450.5C 298.232,448.901 298.566,447.568 299.5,446.5C 299.36,448.124 300.027,449.29 301.5,450C 330.751,450.113 359.751,447.613 388.5,442.5 Z"/></g>
<g><path style="opacity:1" fill="#88878b" d="M 396.5,446.5 C 396.167,447.833 395.833,449.167 395.5,450.5C 394.147,448.872 394.481,447.538 396.5,446.5 Z"/></g>
<g><path style="opacity:1" fill="#1f1d1e" d="M 1218.5,447.5 C 1269.17,447.5 1319.83,447.5 1370.5,447.5C 1370.5,449.167 1370.5,450.833 1370.5,452.5C 1368.5,452.5 1366.5,452.5 1364.5,452.5C 1364.92,451.778 1365.58,451.278 1366.5,451C 1317.17,450.667 1267.83,450.333 1218.5,450C 1268.83,449.667 1319.17,449.333 1369.5,449C 1319,448.833 1268.67,448.333 1218.5,447.5 Z"/></g>
<g><path style="opacity:1" fill="#191818" d="M 533.5,447.5 C 584.833,447.5 636.167,447.5 687.5,447.5C 687.5,449.167 687.5,450.833 687.5,452.5C 636.167,452.5 584.833,452.5 533.5,452.5C 533.5,450.833 533.5,449.167 533.5,447.5 Z"/></g>
<g><path style="opacity:1" fill="#151414" d="M 1216.5,447.5 C 1217.17,447.5 1217.83,447.5 1218.5,447.5C 1268.67,448.333 1319,448.833 1369.5,449C 1319.17,449.333 1268.83,449.667 1218.5,450C 1267.83,450.333 1317.17,450.667 1366.5,451C 1365.58,451.278 1364.92,451.778 1364.5,452.5C 1315.17,452.5 1265.83,452.5 1216.5,452.5C 1216.5,450.833 1216.5,449.167 1216.5,447.5 Z"/></g>
<g><path style="opacity:1" fill="#827d81" d="M 293.5,449.5 C 295.042,450.301 296.708,450.634 298.5,450.5C 302.877,451.745 307.21,452.745 311.5,453.5C 304.953,453.984 298.62,453.317 292.5,451.5C 292.833,450.833 293.167,450.167 293.5,449.5 Z"/></g>
<g><path style="opacity:1" fill="#8c8b8a" d="M 533.5,447.5 C 533.5,449.167 533.5,450.833 533.5,452.5C 584.833,452.5 636.167,452.5 687.5,452.5C 636.003,453.499 584.336,453.832 532.5,453.5C 532.205,451.265 532.539,449.265 533.5,447.5 Z"/></g>
<g><path style="opacity:1" fill="#8c8b8a" d="M 1216.5,447.5 C 1216.5,449.167 1216.5,450.833 1216.5,452.5C 1265.83,452.5 1315.17,452.5 1364.5,452.5C 1366.5,452.5 1368.5,452.5 1370.5,452.5C 1319,453.499 1267.34,453.832 1215.5,453.5C 1215.21,451.265 1215.54,449.265 1216.5,447.5 Z"/></g>
<g><path style="opacity:1" fill="#4a4647" d="M 388.5,453.5 C 387.432,454.434 386.099,454.768 384.5,454.5C 382.19,453.836 379.69,453.503 377,453.5C 355.884,455.746 334.717,457.412 313.5,458.5C 308.991,458.639 304.658,458.139 300.5,457C 329.284,456.792 357.784,453.958 386,448.5C 388.756,448.424 389.923,449.757 389.5,452.5C 385.162,452.622 384.828,452.955 388.5,453.5 Z"/></g>
<g><path style="opacity:1" fill="#a09e9f" d="M 801.5,453.5 C 801.5,454.833 801.5,456.167 801.5,457.5C 808.5,457.5 815.5,457.5 822.5,457.5C 815.352,458.492 808.019,458.825 800.5,458.5C 800.216,456.585 800.549,454.919 801.5,453.5 Z"/></g>
<g><path style="opacity:1" fill="#eae7e7" d="M 388.5,453.5 C 389.833,453.5 391.167,453.5 392.5,453.5C 392.473,455.199 391.806,456.533 390.5,457.5C 388.007,458.774 385.341,459.44 382.5,459.5C 354.248,462.542 325.914,464.208 297.5,464.5C 296.596,463.791 296.263,462.791 296.5,461.5C 325.943,460.492 355.277,458.158 384.5,454.5C 386.099,454.768 387.432,454.434 388.5,453.5 Z"/></g>
<g><path style="opacity:1" fill="#453f40" d="M 390.5,457.5 C 391.684,458.688 391.684,459.855 390.5,461C 386.94,462.237 383.273,462.737 379.5,462.5C 379.389,461.883 379.056,461.383 378.5,461C 380.058,460.79 381.391,460.29 382.5,459.5C 385.341,459.44 388.007,458.774 390.5,457.5 Z"/></g>
<g><path style="opacity:1" fill="#595151" d="M 382.5,459.5 C 381.391,460.29 380.058,460.79 378.5,461C 379.056,461.383 379.389,461.883 379.5,462.5C 352.587,465.75 325.587,467.25 298.5,467C 297.748,466.329 297.414,465.496 297.5,464.5C 325.914,464.208 354.248,462.542 382.5,459.5 Z"/></g>
<g><path style="opacity:1" fill="#646463" d="M 1141.5,455.5 C 1142.49,464.652 1142.83,473.985 1142.5,483.5C 1145.17,483.5 1147.83,483.5 1150.5,483.5C 1150.17,473.985 1150.51,464.652 1151.5,455.5C 1151.5,465.167 1151.5,474.833 1151.5,484.5C 1148.17,484.5 1144.83,484.5 1141.5,484.5C 1141.5,474.833 1141.5,465.167 1141.5,455.5 Z"/></g>
<g><path style="opacity:1" fill="#5a5354" d="M 385.5,464.5 C 387.5,464.5 389.5,464.5 391.5,464.5C 391.5,465.833 391.5,467.167 391.5,468.5C 358.971,472.633 326.304,474.966 293.5,475.5C 293.297,473.61 293.963,472.11 295.5,471C 325.864,471.433 355.864,469.267 385.5,464.5 Z"/></g>
<g><path style="opacity:1" fill="#edebea" d="M 383.5,476.5 C 355.231,479.106 326.898,480.439 298.5,480.5C 297.522,480.189 296.855,479.522 296.5,478.5C 328.509,476.166 360.509,473.832 392.5,471.5C 392.5,472.5 392.5,473.5 392.5,474.5C 389.574,475.461 386.574,476.127 383.5,476.5 Z"/></g>
<g><path style="opacity:1" fill="#6f6967" d="M 383.5,476.5 C 382.319,478.067 380.653,478.901 378.5,479C 371.194,479.942 363.86,480.442 356.5,480.5C 349.865,480.046 343.365,480.712 337,482.5C 325.194,481.551 313.361,481.218 301.5,481.5C 300.209,481.737 299.209,481.404 298.5,480.5C 326.898,480.439 355.231,479.106 383.5,476.5 Z"/></g>
<g><path style="opacity:1" fill="#888786" d="M 775.5,445.5 C 776.473,447.948 776.806,450.615 776.5,453.5C 767.167,453.5 757.833,453.5 748.5,453.5C 748.5,463.833 748.5,474.167 748.5,484.5C 744.958,484.813 741.625,484.479 738.5,483.5C 738.833,483.5 739.167,483.5 739.5,483.5C 742.167,483.5 744.833,483.5 747.5,483.5C 747.5,473.167 747.5,462.833 747.5,452.5C 756.833,452.5 766.167,452.5 775.5,452.5C 775.5,450.167 775.5,447.833 775.5,445.5 Z"/></g>
<g><path style="opacity:1" fill="#464040" d="M 356.5,480.5 C 339.095,483.375 321.428,484.208 303.5,483C 302.584,482.722 301.918,482.222 301.5,481.5C 313.361,481.218 325.194,481.551 337,482.5C 343.365,480.712 349.865,480.046 356.5,480.5 Z"/></g>
<g><path style="opacity:1" fill="#585152" d="M 384.5,481.5 C 388.938,480.425 390.938,482.092 390.5,486.5C 373.821,487.89 357.154,489.39 340.5,491C 324.823,491.833 309.156,491.666 293.5,490.5C 294.04,489.252 294.707,488.085 295.5,487C 312.167,486.667 328.833,486.333 345.5,486C 358.729,485.208 371.729,483.708 384.5,481.5 Z"/></g>
<g><path style="opacity:1" fill="#787776" d="M 792.5,482.5 C 791.306,483.777 789.64,484.444 787.5,484.5C 785.631,484.493 783.964,484.16 782.5,483.5C 785.939,483.747 789.272,483.414 792.5,482.5 Z"/></g>
<g><path style="opacity:1" fill="#787776" d="M 840.5,481.5 C 841.404,482.209 841.737,483.209 841.5,484.5C 837.958,484.813 834.625,484.479 831.5,483.5C 835.012,484.055 838.012,483.388 840.5,481.5 Z"/></g>
<g><path style="opacity:1" fill="#a7a6a6" d="M 900.5,481.5 C 898.383,483.655 895.716,484.655 892.5,484.5C 894.936,483.129 897.603,482.129 900.5,481.5 Z"/></g>
<g><path style="opacity:1" fill="#676664" d="M 1105.5,482.5 C 1106.04,482.56 1106.38,482.893 1106.5,483.5C 1103.02,484.806 1099.69,484.806 1096.5,483.5C 1099.71,483.81 1102.71,483.477 1105.5,482.5 Z"/></g>
<g><path style="opacity:1" fill="#e7e5e5" d="M 388.5,494.5 C 361.202,496.255 333.869,496.922 306.5,496.5C 304.833,496.5 303.167,496.5 301.5,496.5C 299.173,496.753 297.173,496.086 295.5,494.5C 311.156,493.667 326.823,493.167 342.5,493C 359.487,491.289 376.487,489.789 393.5,488.5C 394.024,492.31 392.357,494.31 388.5,494.5 Z"/></g>
<g><path style="opacity:1" fill="#696260" d="M 388.5,494.5 C 387.152,496.48 385.152,497.647 382.5,498C 374.187,498.883 365.853,499.383 357.5,499.5C 340.795,499.891 324.128,499.391 307.5,498C 306.944,497.617 306.611,497.117 306.5,496.5C 333.869,496.922 361.202,496.255 388.5,494.5 Z"/></g>
<g><path style="opacity:1" fill="#464142" d="M 301.5,496.5 C 303.167,496.5 304.833,496.5 306.5,496.5C 306.611,497.117 306.944,497.617 307.5,498C 324.128,499.391 340.795,499.891 357.5,499.5C 343.006,500.661 328.339,500.828 313.5,500C 310.318,499.593 307.151,499.093 304,498.5C 302.624,498.316 301.791,497.649 301.5,496.5 Z"/></g>
<g><path style="opacity:1" fill="#5e5658" d="M 369.5,505.5 C 371.199,505.34 372.866,505.506 374.5,506C 372.356,508.979 370.022,511.812 367.5,514.5C 352.216,520.914 336.883,521.081 321.5,515C 319.38,512.591 317.38,510.091 315.5,507.5C 329.461,507.455 343.461,507.289 357.5,507C 361.688,506.824 365.688,506.324 369.5,505.5 Z"/></g>
<g><path style="opacity:1" fill="#201c20" d="M 366.5,543.5 C 360.833,543.5 355.167,543.5 349.5,543.5C 333.163,543.667 316.83,543.5 300.5,543C 302.167,542.667 303.833,542.333 305.5,542C 300.547,541.005 295.547,540.338 290.5,540C 291.167,539.667 291.833,539.333 292.5,539C 291.584,538.722 290.918,538.222 290.5,537.5C 327.487,534.746 364.487,535.079 401.5,538.5C 403.167,538.833 404.833,539.167 406.5,539.5C 405.975,540.192 405.308,540.692 404.5,541C 391.885,542.66 379.218,543.494 366.5,543.5 Z"/></g>
<g><path style="opacity:1" fill="#2a262a" d="M 290.5,537.5 C 290.918,538.222 291.584,538.722 292.5,539C 291.833,539.333 291.167,539.667 290.5,540C 295.547,540.338 300.547,541.005 305.5,542C 303.833,542.333 302.167,542.667 300.5,543C 316.83,543.5 333.163,543.667 349.5,543.5C 335.01,544.496 320.343,544.829 305.5,544.5C 297.496,543.777 289.496,542.944 281.5,542C 280.027,541.29 279.36,540.124 279.5,538.5C 283.135,537.886 286.802,537.552 290.5,537.5 Z"/></g>
<g><path style="opacity:1" fill="#b9b8bd" d="M 349.5,543.5 C 355.167,543.5 360.833,543.5 366.5,543.5C 354.199,544.969 341.699,545.636 329,545.5C 320.993,545.5 313.159,545.166 305.5,544.5C 320.343,544.829 335.01,544.496 349.5,543.5 Z"/></g>
</svg>
